<svg width="38" height="32" viewBox="0 0 38 32" fill="none" xmlns="http://www.w3.org/2000/svg">
<path fill-rule="evenodd" clip-rule="evenodd" d="M2.64348 0.281738C2.75291 0.281738 2.96446 0.361982 3.11035 0.456815C3.26354 0.551648 4.0295 1.27384 6.23255 3.49147L7.72799 2.00332C8.5523 1.1863 9.33285 0.464109 9.46416 0.398456C9.58817 0.332802 9.78513 0.281738 9.90185 0.281738C10.0113 0.281738 10.2228 0.354687 10.3687 0.44952C10.5219 0.537058 10.7116 0.704839 10.7918 0.828851C10.8867 0.974748 10.9377 1.17171 10.9377 1.41244C10.9377 1.63129 10.8939 1.85013 10.821 1.95955C10.7553 2.06168 10.0477 2.79846 7.80094 5.05986L9.2672 6.51883C10.0696 7.32126 10.7772 8.06534 10.8356 8.17476C10.8939 8.29148 10.9377 8.51762 10.9377 8.6854C10.9377 8.86777 10.8794 9.09391 10.7918 9.23251C10.7043 9.3857 10.5146 9.5316 10.2958 9.62643C10.0332 9.74315 9.87997 9.76503 9.66112 9.72856C9.4058 9.6775 9.18696 9.48783 6.26902 6.59178L4.75899 8.09452C3.56993 9.27628 3.17601 9.61914 2.94987 9.69209C2.78938 9.74315 2.54865 9.75774 2.41734 9.73586C2.29333 9.71397 2.06719 9.58266 1.92129 9.45136C1.7681 9.31275 1.6295 9.1012 1.58573 8.92613C1.52737 8.70728 1.52737 8.56139 1.59303 8.34254C1.66597 8.1164 2.00883 7.72248 4.70063 5.02339L3.15412 3.47688C1.914 2.22217 1.60032 1.87202 1.56385 1.66776C1.53467 1.52916 1.53467 1.31031 1.56385 1.1936C1.59303 1.06958 1.68056 0.88721 1.75351 0.770493C1.83376 0.66107 2.02342 0.507878 2.16932 0.427635C2.31522 0.354687 2.52677 0.289033 2.63619 0.281738H2.64348ZM32.5596 2.40454C32.866 2.39724 33.3767 2.44831 33.683 2.51396C33.9967 2.57962 34.5146 2.75469 34.8356 2.90059C35.1566 3.05378 35.6235 3.33828 35.8715 3.53524C36.1122 3.7322 36.4915 4.10424 36.6958 4.36685C36.9074 4.62947 37.17 5.02339 37.2794 5.24223C37.3888 5.46108 37.5566 5.87688 37.6441 6.15409C37.7317 6.43129 37.8192 6.96382 37.8411 7.32126C37.8703 7.78813 37.8484 8.15287 37.7609 8.59786C37.6806 8.98449 37.5128 9.46595 37.3159 9.87446C37.1408 10.2319 36.8417 10.7207 36.6447 10.9541C36.4551 11.1875 36.1268 11.5085 35.9298 11.669C35.7256 11.8295 35.3681 12.0702 35.1274 12.2015C34.8867 12.3401 34.4563 12.5225 34.1791 12.61C33.8581 12.7122 33.3839 12.7851 32.9025 12.807C32.3189 12.8435 31.9979 12.8216 31.5529 12.7195C31.232 12.6538 30.7724 12.5079 30.5317 12.3985C30.2909 12.2891 29.897 12.0702 29.6563 11.9024C29.4156 11.742 29.0216 11.3991 28.7809 11.1365C28.5402 10.8739 28.2046 10.3997 28.0368 10.086C27.869 9.76503 27.6648 9.2471 27.5773 8.92613C27.4751 8.53221 27.4314 8.1164 27.4314 7.64953C27.4314 7.2702 27.4824 6.74497 27.5335 6.48236C27.5918 6.21974 27.7377 5.77476 27.869 5.49755C27.9931 5.22035 28.2411 4.78995 28.4089 4.54922C28.5839 4.30849 28.8757 3.97293 29.0654 3.79785C29.2478 3.63007 29.5906 3.36746 29.8168 3.22156C30.0502 3.07566 30.4368 2.87141 30.6776 2.77658C30.9183 2.68174 31.3122 2.55773 31.5529 2.50667C31.7937 2.44831 32.246 2.40454 32.5523 2.40454H32.5596ZM31.1955 4.95773C31.035 5.04527 30.7578 5.25682 30.5827 5.41731C30.4149 5.58509 30.1815 5.8477 30.0794 6.00819C29.9773 6.16868 29.8387 6.48236 29.7584 6.7012C29.6782 6.94193 29.6271 7.29938 29.6271 7.61306C29.6271 7.89026 29.6709 8.26959 29.7292 8.45196C29.7803 8.63433 29.8751 8.87506 29.9408 8.99908C29.9991 9.12309 30.1523 9.34923 30.2836 9.50972C30.4149 9.6702 30.6849 9.92552 30.8891 10.0787C31.1153 10.2465 31.48 10.4216 31.7791 10.5091C32.1657 10.6258 32.421 10.655 32.8368 10.6258C33.2526 10.604 33.5007 10.5383 33.8727 10.3632C34.1499 10.2319 34.5365 9.97658 34.7408 9.77962C34.9523 9.58266 35.2004 9.2544 35.3244 8.99908C35.4411 8.75835 35.5724 8.34984 35.6162 8.08722C35.6818 7.73707 35.6818 7.48904 35.6162 7.13889C35.5724 6.87628 35.4557 6.48965 35.3536 6.2781C35.2514 6.07384 34.9961 5.72369 34.7846 5.51214C34.5803 5.2933 34.2666 5.05257 34.0915 4.96503C33.9238 4.87749 33.5955 4.75348 33.3621 4.69512C33.1359 4.63676 32.7785 4.5857 32.5815 4.59299C32.3773 4.59299 32.049 4.63676 31.852 4.69512C31.6478 4.74618 31.356 4.8629 31.1955 4.95773ZM20.0636 2.90788C20.2095 2.91518 20.4137 2.95165 20.5231 3.00272C20.6326 3.05378 21.7633 3.99481 23.0253 5.09634C24.2946 6.19786 25.3888 7.18266 25.4545 7.28479C25.5201 7.38692 25.5712 7.62035 25.5785 7.8392C25.5785 8.16017 25.542 8.2623 25.3231 8.5395C25.1845 8.71458 24.2289 9.82339 23.2076 10.9979C22.004 12.3766 21.2672 13.1645 21.1067 13.2301C20.9827 13.2885 20.793 13.3395 20.6909 13.3395C20.5888 13.3395 20.3991 13.2958 20.2678 13.2447C20.1438 13.1863 19.9468 13.0404 19.8301 12.9164C19.7207 12.7851 19.6113 12.5736 19.5894 12.4423C19.5675 12.3182 19.5821 12.0921 19.6259 11.9535C19.6696 11.8003 20.1292 11.2094 20.8003 10.4362C21.3985 9.75044 21.8946 9.15227 21.8946 9.1085C21.8946 9.06473 21.7851 9.05014 21.6174 9.07932C21.4715 9.1012 21.0046 9.18874 20.5815 9.26899C20.1584 9.34923 19.4362 9.5243 18.9766 9.65561C18.5171 9.78692 17.8022 10.035 17.3864 10.1954C16.9778 10.3632 16.3213 10.655 15.9274 10.852C15.5408 11.0489 14.8769 11.4356 14.4538 11.7128C14.0307 11.99 13.4253 12.435 13.1043 12.6903C12.7833 12.9456 12.2216 13.4635 11.8496 13.8283C11.4775 14.2003 10.9158 14.8277 10.6022 15.2143C10.2958 15.6082 9.85808 16.2064 9.63194 16.5493C9.4058 16.8921 9.06294 17.4465 8.87328 17.7894C8.67632 18.1322 8.36264 18.7669 8.16568 19.2119C7.96872 19.6569 7.7134 20.2915 7.58939 20.6344C7.47267 20.9772 7.38513 21.2544 7.39242 21.2617C7.40701 21.2617 7.62586 21.3639 7.88847 21.4806C8.15109 21.6046 8.52313 21.8161 8.72738 21.9547C8.92434 22.086 9.2672 22.3851 9.48604 22.604C9.6976 22.8228 9.98939 23.1876 10.1353 23.4064C10.2739 23.6253 10.4563 23.9535 10.5365 24.1359C10.6167 24.3183 10.7408 24.6903 10.8137 24.9748C10.9012 25.3031 10.9523 25.7408 10.9523 26.2149C10.9523 26.7183 10.9085 27.1268 10.8064 27.528C10.7189 27.849 10.5146 28.3742 10.3468 28.6952C10.128 29.1256 9.87997 29.4465 9.42039 29.9061C8.92434 30.4095 8.66902 30.5918 8.14379 30.8617C7.72799 31.0733 7.22464 31.2484 6.75777 31.3578C6.23255 31.4745 5.89698 31.511 5.55413 31.4818C5.29151 31.4599 4.84653 31.3943 4.56932 31.3286C4.28482 31.263 3.79607 31.0806 3.4751 30.9274C3.15412 30.7669 2.67996 30.4605 2.41734 30.249C2.15473 30.0301 1.79728 29.6581 1.62221 29.4174C1.43983 29.1839 1.19181 28.7754 1.0605 28.5128C0.929195 28.2502 0.768709 27.8271 0.69576 27.5645C0.600927 27.2289 0.564453 26.835 0.564453 26.2149C0.564453 25.5073 0.593632 25.2374 0.732234 24.7924C0.819773 24.4933 1.01673 24.0192 1.16263 23.742C1.31582 23.4648 1.64409 23.0052 1.9067 22.7207C2.16932 22.4435 2.62889 22.0569 2.92798 21.8599C3.22707 21.6629 3.65747 21.4368 3.87631 21.3566C4.09516 21.2763 4.46719 21.1669 5.13102 21.0356L5.47388 20.0508C5.66355 19.511 5.95534 18.7523 6.13042 18.373C6.2982 17.9936 6.63376 17.3225 6.88179 16.8775C7.12252 16.4325 7.53832 15.7468 7.80094 15.3456C8.07085 14.9444 8.55231 14.2879 8.87328 13.8866C9.19425 13.4854 9.8362 12.7778 10.2958 12.3182C10.7553 11.8514 11.4119 11.2532 11.7547 10.9833C12.0976 10.7134 12.6885 10.283 13.0678 10.0277C13.4471 9.77233 14.0526 9.40029 14.4174 9.20333C14.7748 8.99908 15.4022 8.69269 15.8034 8.51032C16.2046 8.32066 16.9268 8.03616 17.4082 7.87567C17.8897 7.70789 18.7432 7.45986 19.3049 7.32126C19.8666 7.18996 20.5888 7.03676 20.9098 6.9857C21.2307 6.94193 21.5298 6.87628 21.5809 6.85439C21.632 6.83251 21.1651 6.38023 20.4648 5.76746C19.8082 5.19846 19.2101 4.64406 19.1444 4.52734C19.0715 4.41792 19.0131 4.18448 19.0131 3.98752C19.0131 3.75409 19.0642 3.5863 19.1663 3.44041C19.2465 3.33098 19.4289 3.1632 19.5602 3.06837C19.7061 2.97354 19.9104 2.90788 20.0636 2.90788ZM4.38695 23.5304C4.16811 23.6471 3.82525 23.8952 3.62099 24.0994C3.41674 24.2964 3.16142 24.6465 3.05199 24.8654C2.94257 25.0842 2.81856 25.4927 2.7675 25.7772C2.70914 26.1639 2.70914 26.3973 2.77479 26.7256C2.81856 26.9663 2.93528 27.3383 3.0374 27.5426C3.13953 27.7541 3.37297 28.097 3.56263 28.3012C3.75959 28.5055 4.04409 28.7462 4.20458 28.8338C4.36507 28.9286 4.67874 29.0599 4.89759 29.1329C5.19668 29.2277 5.45929 29.2569 5.91887 29.2277C6.41492 29.2058 6.63376 29.1547 7.01309 28.9797C7.30489 28.8411 7.64045 28.6076 7.88118 28.3596C8.1292 28.1189 8.36264 27.7833 8.50124 27.4915C8.67632 27.1122 8.72738 26.8933 8.74927 26.3973C8.77844 25.9304 8.74927 25.6751 8.65443 25.376C8.58148 25.1572 8.421 24.807 8.28969 24.6101C8.16568 24.4058 7.91036 24.114 7.73528 23.9608C7.56021 23.8003 7.24653 23.5961 7.04957 23.5012C6.84531 23.4137 6.50245 23.3043 6.28361 23.2605C6.06476 23.2167 5.78027 23.1876 5.66355 23.1949C5.53954 23.2022 5.29881 23.2313 5.11643 23.2678C4.93406 23.3043 4.6058 23.421 4.38695 23.5304ZM17.08 22.0204C17.1383 22.0204 17.3061 22.0569 17.4447 22.0933C17.6344 22.1444 18.094 22.5602 20.7274 25.1936L22.2374 23.6909C23.4265 22.5091 23.8204 22.1663 24.0465 22.0933C24.207 22.0423 24.4478 22.0277 24.5718 22.0496C24.7031 22.0715 24.9146 22.1809 25.0459 22.2903C25.17 22.407 25.3159 22.604 25.3742 22.728C25.4253 22.8593 25.469 23.049 25.469 23.1511C25.469 23.2532 25.418 23.4429 25.3523 23.5669C25.2867 23.6982 24.5718 24.4715 22.2958 26.762L23.835 28.3085C25.0824 29.5633 25.3888 29.9134 25.4326 30.1177C25.4617 30.2563 25.4617 30.4751 25.4399 30.5918C25.418 30.7085 25.3377 30.8982 25.2502 31.0076C25.17 31.1244 24.973 31.2775 24.8125 31.3578C24.652 31.438 24.4405 31.5037 24.3383 31.5037C24.2362 31.5037 24.0684 31.4526 23.9517 31.3797C23.8423 31.314 23.0836 30.5918 20.7639 28.294L19.3049 29.7602C18.5025 30.5626 17.7219 31.2848 17.5687 31.3651C17.4228 31.438 17.2186 31.5037 17.1164 31.5037C17.0143 31.5037 16.8465 31.4599 16.7298 31.4016C16.6204 31.3432 16.4453 31.2046 16.3359 31.0879C16.2192 30.9785 16.1098 30.7669 16.0879 30.6283C16.0587 30.4897 16.066 30.2417 16.0952 30.0812C16.1389 29.8259 16.3359 29.5997 19.1882 26.7256L17.7292 25.2666C16.9268 24.4642 16.2192 23.7201 16.1608 23.6034C16.1025 23.4939 16.0587 23.2678 16.0587 23.0927C16.0587 22.9031 16.1244 22.6915 16.2265 22.5383C16.314 22.3997 16.5183 22.2246 16.6788 22.1517C16.8392 22.0787 17.0216 22.0204 17.08 22.0204Z" fill="#EF7142"/>
</svg>
