<svg width="33" height="44" viewBox="0 0 33 44" fill="none" xmlns="http://www.w3.org/2000/svg">
<path fill-rule="evenodd" clip-rule="evenodd" d="M16.0816 0C16.2792 0 16.5456 0.0687499 16.6745 0.146092C16.812 0.223442 17.5253 0.885152 18.273 1.62422C19.0206 2.36328 19.7081 3.11094 19.8026 3.2914C19.8886 3.46328 19.9659 3.72969 19.9659 3.86719C19.9659 4.01328 19.8886 4.27969 19.7941 4.46875C19.6795 4.69791 19.5076 4.86979 19.2784 4.98437C19.0894 5.0789 18.8144 5.15625 18.6769 5.15625C18.5394 5.15625 18.2901 5.09609 18.1355 5.01875C17.9894 4.9414 17.7573 4.77812 17.3878 4.42578V7.94922L18.0066 8.06094C18.3503 8.12969 18.9776 8.29297 19.4073 8.43906C19.8284 8.57656 20.5245 8.86875 20.9542 9.09219C21.3753 9.31562 22.0198 9.71952 22.3722 9.98592C22.7245 10.2437 23.3519 10.8195 23.7644 11.2492C24.1855 11.6789 24.555 12.0226 24.5894 12.014C24.6237 11.9969 25.2855 11.6273 26.0503 11.1976C26.8151 10.7594 27.4597 10.3554 27.4855 10.3125C27.5112 10.2695 27.4597 10.2265 27.3737 10.2265C27.2964 10.2265 27.073 10.1578 26.8839 10.0719C26.6691 9.96872 26.4628 9.78832 26.3339 9.57342C26.162 9.30702 26.1362 9.15232 26.162 8.7914C26.1878 8.42187 26.248 8.28437 26.4972 8.03515C26.7464 7.77734 26.8753 7.71719 27.2277 7.67422C27.5714 7.63984 28.0269 7.73437 29.462 8.12109C30.4503 8.3875 31.4042 8.67109 31.5675 8.75703C31.7566 8.85156 31.9456 9.05781 32.0659 9.28982C32.212 9.56482 32.2464 9.74532 32.212 9.96872C32.1862 10.132 31.937 11.0859 31.6706 12.0742C31.4042 13.0711 31.112 13.9906 31.0261 14.1195C30.9487 14.2484 30.7511 14.4117 30.5964 14.4976C30.4503 14.575 30.1667 14.6351 29.9777 14.6351C29.7886 14.6351 29.505 14.575 29.3503 14.4976C29.2042 14.4117 28.9894 14.2054 28.8862 14.0336C28.7316 13.7586 28.7058 13.6211 28.8003 12.5898L27.3222 13.432C26.5144 13.8961 25.8441 14.2828 25.8355 14.2914C25.8269 14.3 25.9472 14.7125 26.1105 15.2109C26.2652 15.7094 26.4456 16.4226 26.4972 16.8008C26.5573 17.1789 26.5831 17.9094 26.5659 18.4336C26.5401 18.9578 26.4972 19.4476 26.4714 19.5336C26.4198 19.6625 26.4886 19.6797 27.2448 19.6797C27.898 19.6797 28.1644 19.7226 28.448 19.8515C28.6542 19.9461 28.8948 20.1523 28.998 20.307C29.1612 20.5648 29.1698 20.6679 29.1269 21.957C29.0925 22.9539 29.0237 23.6242 28.8605 24.4062C28.7402 24.9992 28.4737 25.9875 28.2675 26.5976C28.0612 27.2078 27.7261 28.0844 27.5284 28.5312C27.3222 28.9781 26.7292 30.1554 26.205 31.1523C25.6894 32.1492 25.1909 33.1804 25.105 33.4554C24.9675 33.9023 24.9503 34.3578 24.9503 38.457C24.9503 42.2726 24.9331 43.0117 24.8214 43.2695C24.7527 43.4328 24.5464 43.6648 24.048 44H9.69638L9.3956 43.8023C9.23232 43.6906 9.02607 43.4586 8.94013 43.2867C8.81982 43.0203 8.79403 42.7195 8.79403 40.0469H6.44794C4.2995 40.0469 4.08466 40.0297 3.74091 39.875C3.54325 39.7804 3.30263 39.5828 3.2081 39.4281C3.04482 39.1531 3.03622 38.9898 3.03622 31.8828L2.19403 31.857C1.61825 31.8398 1.2745 31.7883 1.07685 31.6851C0.930753 31.6078 0.724504 31.4101 0.629972 31.2554C0.526847 31.0922 0.458097 30.8344 0.458097 30.5937C0.458097 30.3101 0.801847 29.2703 3.03622 23.2031V21.8883C3.03622 20.7367 3.05341 20.5476 3.2081 20.307C3.30263 20.1437 3.54325 19.9461 3.74091 19.8515C4.0331 19.7226 4.2995 19.6797 4.94403 19.6797C5.70888 19.6797 5.77763 19.6625 5.72607 19.525C5.70028 19.4476 5.65732 18.932 5.63153 18.3906C5.60862 17.7317 5.64299 17.1445 5.73466 16.6289C5.80341 16.2078 5.98388 15.5031 6.12138 15.082C6.26747 14.6609 6.3706 14.3 6.362 14.2914C6.35341 14.2828 5.6745 13.8875 3.37997 12.5469L3.44013 13.1226C3.49169 13.6297 3.4745 13.75 3.31122 14.025C3.2081 14.2054 2.99325 14.4117 2.83857 14.4976C2.69247 14.575 2.40888 14.6351 2.21982 14.6437C2.03075 14.6437 1.74716 14.5664 1.57528 14.4719C1.412 14.3773 1.20575 14.1797 1.12841 14.0422C1.05107 13.9047 0.750285 12.9164 0.466691 11.8336C0.0112225 10.132 -0.0489339 9.83982 0.0284099 9.55622C0.0799724 9.38442 0.183097 9.16092 0.269035 9.0664C0.346378 8.96328 0.475285 8.84297 0.544035 8.7914C0.612785 8.73125 1.54091 8.45625 2.60653 8.16406C4.1706 7.73437 4.61747 7.63984 4.96982 7.67422C5.32216 7.71719 5.45107 7.77734 5.70028 8.03515C5.9495 8.28437 6.00966 8.42187 6.03544 8.7914C6.06122 9.15232 6.03544 9.30702 5.86357 9.57342C5.73466 9.78832 5.52841 9.96872 5.31357 10.0719C5.1245 10.1578 4.90107 10.2265 4.81513 10.2265C4.73778 10.2265 4.68622 10.2523 4.70341 10.2867C4.7206 10.3297 5.3995 10.7336 7.67685 12.0312L8.4245 11.2492C8.8456 10.8195 9.47294 10.2437 9.82528 9.98592C10.1776 9.71952 10.8222 9.31562 11.2433 9.09219C11.6644 8.86875 12.3691 8.57656 12.7901 8.43047C13.2112 8.29297 13.8472 8.12109 14.8097 7.94922V4.42578L14.5776 4.64922C14.4401 4.77812 14.2081 4.9414 14.0534 5.01875C13.9073 5.09609 13.6581 5.15625 13.5206 5.15625C13.3745 5.15625 13.1081 5.0789 12.9191 4.98437C12.6899 4.86979 12.518 4.69791 12.4034 4.46875C12.3089 4.27969 12.2316 4.00469 12.2316 3.86719C12.2316 3.72109 12.3089 3.46328 12.3948 3.28281C12.4894 3.11094 13.1597 2.38047 13.8816 1.66719C14.6034 0.953902 15.3081 0.292192 15.4542 0.189062C15.6175 0.06875 15.8495 0.008594 16.073 0H16.0816ZM13.6151 10.8797C13.2628 11 12.6698 11.2578 12.3003 11.4554C11.9308 11.6531 11.355 12.0484 11.0112 12.332C10.6761 12.6156 10.1948 13.0969 9.9456 13.4062C9.68778 13.7156 9.27528 14.3859 9.01747 14.9101C8.75966 15.4344 8.49325 16.0875 8.41591 16.3711C8.33857 16.6547 8.25263 17.3336 8.22685 17.875L8.17528 18.8633C8.562 19.3101 8.77685 19.4992 8.90575 19.5594C9.09482 19.6539 9.6706 19.6797 11.4237 19.6797H13.7011C13.6323 19.3789 13.5894 19.0265 13.555 18.6914C13.5206 18.2703 13.5464 17.9265 13.6495 17.557C13.7269 17.2562 13.8901 16.8094 14.0191 16.5687C14.1394 16.3195 14.4401 15.9156 14.6808 15.675C14.9214 15.4344 15.3683 15.125 15.6776 14.9703C15.987 14.8242 16.4855 14.6609 16.7948 14.6094C17.1042 14.5492 17.7487 14.5234 18.23 14.5406C18.9605 14.5578 19.1409 14.6008 19.3472 14.7469C19.4761 14.85 19.6566 15.0219 19.7425 15.1336C19.8284 15.2453 19.9144 15.5117 19.9401 15.7265C19.9745 16.0015 19.9401 16.1992 19.8284 16.4054C19.7425 16.5687 19.562 16.7836 19.4331 16.8781C19.2269 17.0328 19.0206 17.0672 18.0839 17.1015C17.1558 17.1359 16.9409 17.1703 16.7433 17.3164C16.623 17.4109 16.4425 17.5828 16.348 17.7031C16.2534 17.8234 16.1675 18.0898 16.1417 18.3047C16.1073 18.5797 16.1417 18.7773 16.2534 18.9922C16.3394 19.1554 16.5456 19.3789 16.7089 19.4906C17.0097 19.6797 17.0183 19.6883 20.0347 19.6797C22.4667 19.6797 23.1112 19.6539 23.3003 19.5594C23.4378 19.4906 23.6355 19.3359 23.7558 19.207C23.962 18.9922 23.9706 18.932 23.962 17.9781C23.962 17.2992 23.9105 16.7922 23.8073 16.414C23.73 16.1047 23.4722 15.4687 23.2487 14.9961C23.0167 14.5148 22.6042 13.8445 22.312 13.475C22.0198 13.1054 21.4956 12.5726 21.1519 12.289C20.8167 12.014 20.2066 11.6101 19.8026 11.3953C19.3987 11.1804 18.7198 10.9054 18.2987 10.7851C17.6714 10.5961 17.3105 10.5445 16.3651 10.5273C15.7292 10.5101 14.9901 10.5273 14.7323 10.5789C14.4745 10.6219 13.9675 10.7594 13.6151 10.8797ZM5.60575 23.057C5.56278 23.8047 5.51982 23.9765 4.60888 26.4258C4.08466 27.8437 3.63778 29.0726 3.612 29.1586C3.56903 29.2875 3.6206 29.3047 4.07607 29.3047C4.39403 29.3047 4.712 29.3648 4.90107 29.4594C5.07294 29.5367 5.29638 29.7429 5.3995 29.9062C5.57138 30.1984 5.57997 30.3015 5.59716 33.8422L5.62294 37.4687C10.4355 37.4601 10.487 37.4687 10.7706 37.6578C10.9339 37.7695 11.1316 37.9929 11.2261 38.1562C11.3636 38.414 11.3808 38.6633 11.3808 39.9437V41.4219H22.3808L22.4237 33.3008C22.7933 32.2351 23.3261 31.1179 23.8503 30.1211C24.3659 29.1328 24.9589 27.9469 25.1652 27.5C25.3714 27.0531 25.6808 26.2797 25.8441 25.7812C26.0073 25.2828 26.2222 24.475 26.3167 23.9765C26.4112 23.4781 26.5144 22.8937 26.5402 22.6703L26.5917 22.2578H5.64872L5.60575 23.057Z" fill="#EF7142"/>
</svg>
