<svg width="38" height="44" viewBox="0 0 38 44" fill="none" xmlns="http://www.w3.org/2000/svg">
<path fill-rule="evenodd" clip-rule="evenodd" d="M18.4286 0.00122249C19.7394 -0.00728851 20.3948 0.0267585 21.28 0.162946C21.9099 0.256575 22.7355 0.392763 23.11 0.469369C23.4846 0.545975 24.2336 0.741745 24.7698 0.903465C25.3061 1.0652 26.0721 1.32055 26.4722 1.47376C26.8722 1.62697 27.6553 1.98447 28.2171 2.26536C28.7789 2.54624 29.6471 3.0229 31.0685 3.90812L32.1325 2.92927C32.7198 2.39303 33.222 1.95042 33.2646 1.95042C33.2986 1.94191 33.4093 2.01 33.5114 2.09512C33.6646 2.2228 33.8604 2.92927 34.635 6.12118C35.1542 8.24911 35.5798 10.0706 35.5798 10.1643C35.5798 10.2579 35.5372 10.3856 35.4776 10.4452C35.4181 10.4962 35.3074 10.5473 35.2223 10.5473C35.1372 10.5473 33.3327 10.0451 31.2218 9.43225C29.1023 8.81089 27.3149 8.26614 27.2553 8.21507C27.1957 8.16399 27.1446 8.02782 27.1446 7.90865C27.1446 7.74693 27.383 7.46604 28.1065 6.7851C29.0342 5.90839 29.0598 5.87434 28.898 5.74666C28.8044 5.67857 28.4044 5.43173 28.0043 5.21042C27.6128 4.98912 26.8978 4.62311 26.4296 4.40181C25.9615 4.18901 25.1103 3.84854 24.5315 3.66128C23.9612 3.46551 23.0249 3.21867 22.4546 3.10802C21.8758 2.98885 21.0332 2.85267 20.5735 2.81011C20.1224 2.75904 19.2032 2.71648 18.5392 2.71648C17.8668 2.71648 16.8794 2.76755 16.3432 2.83564C15.807 2.90374 15.0579 3.0229 14.6834 3.09951C14.3089 3.17611 13.7301 3.3123 13.4066 3.41444C13.0832 3.50807 12.4618 3.70384 12.0448 3.84854C11.6277 3.99324 10.7254 4.39329 10.0445 4.72525C9.36358 5.06572 8.42729 5.60196 7.95914 5.90839C7.49099 6.22332 6.78452 6.75105 6.38447 7.08301C5.98441 7.41497 5.33752 8.0193 4.94598 8.41936C4.55444 8.81941 4.00969 9.43226 3.72029 9.78124C3.4394 10.1302 3.03083 10.692 2.80953 11.0154C2.58822 11.3389 2.29882 11.7049 2.17115 11.8241C1.9924 11.9858 1.83067 12.0454 1.46467 12.0624C1.06462 12.0879 0.928426 12.0624 0.681584 11.8922C0.51986 11.79 0.298555 11.5602 0.196414 11.3985C0.0687367 11.2112 -0.00786926 10.9729 0.000642736 10.7601C0.000642736 10.5303 0.0857607 10.2664 0.273019 9.9515C0.426231 9.69612 0.826286 9.11732 1.16676 8.67471C1.49872 8.2321 2.09454 7.51711 2.48608 7.08301C2.86911 6.65742 3.48196 6.03606 3.83094 5.72113C4.17992 5.40619 4.79277 4.88698 5.19282 4.58055C5.59287 4.27413 6.20572 3.83152 6.5547 3.59319C6.90368 3.36337 7.55909 2.97183 8.0017 2.72499C8.44431 2.47815 9.1593 2.12066 9.57637 1.9334C9.99342 1.74614 10.7595 1.43971 11.2787 1.25246C11.7979 1.0652 12.7342 0.792817 13.3641 0.639605C13.994 0.477881 14.8622 0.307647 15.2792 0.248064C15.6963 0.196993 16.1985 0.120387 16.3858 0.0778285C16.573 0.0437815 17.4923 0.00973449 18.4286 0.00122249ZM35.6904 31.4862C36.0139 31.4862 36.2182 31.5373 36.4309 31.6735C36.5927 31.7841 36.814 32.0054 36.9161 32.1672C37.0438 32.3544 37.1204 32.5927 37.1119 32.8055C37.1119 33.0354 37.0268 33.2992 36.8395 33.6142C36.6863 33.8695 36.2863 34.4483 35.9458 34.8909C35.6138 35.3335 35.0095 36.0655 34.6094 36.5082C34.2094 36.9508 33.5625 37.5977 33.1709 37.9466C32.7879 38.2871 32.1836 38.7893 31.8346 39.0532C31.4856 39.3256 30.9664 39.7001 30.6855 39.8873C30.4046 40.0746 29.7918 40.4491 29.3236 40.7215C28.8555 40.9853 28.0894 41.3854 27.6213 41.5897C27.1531 41.8025 26.3445 42.1259 25.8338 42.3132C25.3146 42.5004 24.4379 42.7643 23.8761 42.9005C23.3143 43.0452 22.3525 43.241 21.7482 43.3431C20.9736 43.4623 20.1139 43.5304 18.8542 43.5474C17.3391 43.5814 16.8794 43.5559 15.8325 43.4027C15.1516 43.3005 14.2323 43.1473 13.7897 43.0452C13.3471 42.9516 12.4023 42.6877 11.7043 42.4579C10.9978 42.2281 9.84872 41.7599 9.15079 41.4194C8.44431 41.079 7.46546 40.5427 6.044 39.6575L4.98003 40.6364C4.39271 41.1726 3.89052 41.6152 3.85647 41.6152C3.81391 41.6237 3.70326 41.5556 3.60112 41.4705C3.45642 41.3428 3.25214 40.6193 2.47757 37.4445C1.95835 35.3165 1.53276 33.495 1.53276 33.4014C1.53276 33.3077 1.57532 33.1801 1.6349 33.129C1.69449 33.0694 1.81365 33.0183 1.90728 33.0183C2.00942 33.0183 3.8054 33.5205 5.91632 34.1334C8.01872 34.7547 9.79772 35.2995 9.85722 35.3506C9.91682 35.4016 9.96792 35.5463 9.95942 35.6825C9.95942 35.8613 9.77215 36.0911 9.02311 36.789C8.50389 37.2657 8.0783 37.6743 8.0783 37.6998C8.08682 37.7253 8.38473 37.9211 8.74222 38.1339C9.10822 38.3552 9.74661 38.7042 10.1722 38.917C10.5893 39.1213 11.2787 39.4277 11.7043 39.5979C12.1214 39.7596 12.8874 40.015 13.4066 40.1597C13.9174 40.3044 14.8026 40.5002 15.3643 40.6023C15.9942 40.713 16.9475 40.7981 17.8753 40.8236C18.7946 40.8577 19.7564 40.8321 20.3863 40.7725C20.9481 40.713 21.8673 40.5683 22.4291 40.4576C22.9909 40.347 24.0208 40.0576 24.7273 39.8192C25.4252 39.5809 26.5233 39.1213 27.1531 38.8063C27.783 38.4829 28.6852 37.9637 29.1534 37.6487C29.6215 37.3423 30.294 36.8486 30.643 36.5592C30.9919 36.2783 31.6218 35.6995 32.0474 35.274C32.4645 34.8484 33.0603 34.2015 33.3582 33.827C33.6561 33.4524 34.0817 32.8821 34.303 32.5502C34.5243 32.2267 34.8222 31.8522 34.9754 31.7245C35.1967 31.5288 35.3414 31.4862 35.6904 31.4862ZM18.6584 8.27466C21.0332 8.29168 21.1949 8.30019 21.4162 8.46191C21.5354 8.55554 21.7141 8.72578 21.8078 8.84494C21.9184 8.98964 22.0035 9.30458 22.0546 9.78124C22.1057 10.1813 22.1567 10.6154 22.1823 10.7601C22.2163 10.9899 22.2844 11.041 22.8802 11.2708C23.2377 11.407 23.5527 11.5347 23.5782 11.5432C23.6037 11.5602 23.9272 11.3219 24.3017 11.0154C24.6762 10.709 25.1188 10.4196 25.2805 10.36C25.4508 10.309 25.7317 10.3005 25.9189 10.3345C26.2168 10.3856 26.4722 10.5984 28.0724 12.1901C29.3832 13.5009 29.9109 14.0797 29.979 14.2925C30.0301 14.4542 30.0471 14.7351 30.0131 14.9138C29.9875 15.1011 29.8173 15.416 29.596 15.6884C29.4002 15.9352 29.1364 16.2757 28.7789 16.7183L29.0513 17.4163C29.2981 18.0547 29.3492 18.1228 29.579 18.1568C29.7152 18.1738 30.1578 18.2334 30.5578 18.2845C31.009 18.3356 31.3579 18.4292 31.4856 18.5228C31.5963 18.6079 31.7665 18.7867 31.8687 18.9144C32.0389 19.1527 32.0474 19.2378 32.0474 21.7828C32.0474 24.2768 32.0389 24.4215 31.8772 24.6428C31.7835 24.7619 31.6133 24.9407 31.4941 25.0343C31.3494 25.145 31.0345 25.2301 30.5578 25.2811C30.1578 25.3322 29.7152 25.3918 29.579 25.4088C29.3492 25.4429 29.2981 25.511 28.7789 26.8473L29.0087 27.1367C29.1364 27.2899 29.4002 27.6304 29.596 27.8772C29.8173 28.1496 29.9875 28.4645 30.0131 28.6603C30.0471 28.8306 30.0301 29.1114 29.979 29.2732C29.9109 29.486 29.3832 30.0648 28.0724 31.3756C26.3701 33.0694 26.2339 33.1801 25.8764 33.2311C25.621 33.2737 25.3997 33.2482 25.1954 33.163C25.0337 33.0949 24.6081 32.8055 24.2591 32.5161C23.9102 32.2353 23.6037 32.0054 23.5782 32.0225C23.5527 32.031 23.2377 32.1586 22.8802 32.2948C22.2844 32.5247 22.2163 32.5757 22.1823 32.8055C22.1567 32.9417 22.1057 33.3843 22.0546 33.7844C22.0035 34.2355 21.9099 34.5845 21.8163 34.7122C21.7311 34.8228 21.5524 34.9931 21.4247 35.0952C21.1864 35.2654 21.1013 35.274 18.5563 35.274C16.0623 35.274 15.9176 35.2654 15.6963 35.1037C15.5771 35.0101 15.3984 34.8399 15.3048 34.7207C15.1856 34.5675 15.109 34.2355 15.0154 33.529C14.9558 32.9928 14.8877 32.5502 14.8792 32.5417C14.8622 32.5417 14.5642 32.431 14.2153 32.2863C13.8663 32.1501 13.5599 32.031 13.5343 32.0225C13.5088 32.0054 13.2024 32.2353 12.8534 32.5161C12.5044 32.8055 12.0788 33.0949 11.9171 33.163C11.7128 33.2482 11.4915 33.2737 11.2361 33.2311C10.8787 33.1801 10.751 33.0694 9.00609 31.333C7.26969 29.5881 7.15904 29.4604 7.10797 29.1029C7.06541 28.8476 7.09094 28.6263 7.17606 28.422C7.24415 28.2603 7.53355 27.8347 7.82295 27.4857C8.10384 27.1367 8.33366 26.8303 8.31663 26.8048C8.30812 26.7792 8.18045 26.4643 8.04426 26.1068C7.81444 25.511 7.76337 25.4429 7.53355 25.4088C7.38885 25.3833 6.95475 25.3322 6.5547 25.2811C6.10358 25.2301 5.7546 25.1364 5.62692 25.0428C5.51627 24.9577 5.34603 24.779 5.24389 24.6513C5.07365 24.413 5.06514 24.3278 5.06514 21.7828C5.06514 19.2889 5.07365 19.1442 5.23538 18.9229C5.32901 18.8037 5.49924 18.625 5.61841 18.5313C5.76311 18.4207 6.07804 18.3356 6.5547 18.2845C6.95475 18.2334 7.38885 18.1823 7.53355 18.1568C7.76337 18.1228 7.81444 18.0547 8.04426 17.4588C8.18045 17.1013 8.30812 16.7864 8.31663 16.7609C8.33366 16.7353 8.10384 16.4289 7.82295 16.0799C7.53355 15.731 7.24415 15.3054 7.17606 15.1436C7.09094 14.9394 7.06541 14.7266 7.10797 14.4627C7.16755 14.1052 7.2782 13.969 8.96353 12.2667C10.4616 10.7601 10.8276 10.4366 11.1085 10.3685C11.2957 10.3175 11.5766 10.3005 11.7213 10.326C11.8745 10.3515 12.2065 10.5388 12.4618 10.7431C12.7087 10.9388 13.0492 11.2027 13.4918 11.5602L14.1727 11.2878C14.5472 11.1431 14.8622 11.0154 14.8792 11.0154C14.8877 11.0154 14.9388 10.675 14.9813 10.2494C15.0324 9.8323 15.092 9.37267 15.126 9.22797C15.1601 9.09177 15.2622 8.86197 15.3643 8.72578C15.4665 8.58959 15.6793 8.42787 15.841 8.36829C16.0623 8.27466 16.7007 8.25763 18.6584 8.27466ZM17.5774 11.5942C17.5519 11.9262 17.4923 12.3263 17.4497 12.4624C17.4072 12.6071 17.2369 12.8455 17.0752 12.9987C16.8624 13.1859 16.5475 13.3392 16.0623 13.4753C15.6793 13.5945 14.9813 13.8839 14.5132 14.1137C14.011 14.3691 13.5513 14.5478 13.3811 14.5478C13.2364 14.5478 13.0066 14.5053 12.8704 14.4542C12.7427 14.4031 12.3937 14.1648 12.1043 13.9265L11.5596 13.4839L10.2573 14.7947C10.8531 15.4926 11.0914 15.8331 11.1766 15.9948C11.2532 16.1565 11.3213 16.4289 11.3213 16.5906C11.3213 16.7779 11.1595 17.2035 10.8872 17.7397C10.6573 18.2079 10.3679 18.9058 10.2488 19.2974C10.1126 19.774 9.95942 20.089 9.76363 20.3018C9.61893 20.4635 9.37209 20.6337 9.2359 20.6763C9.0912 20.7188 8.69966 20.7699 8.35919 20.7955L7.74635 20.8465V22.7191C8.69966 22.7957 9.0912 22.8468 9.2359 22.8893C9.37209 22.9319 9.61893 23.1021 9.76363 23.2639C9.95942 23.4767 10.1126 23.7916 10.2488 24.2768C10.3679 24.6598 10.6573 25.3578 10.8872 25.8259C11.1595 26.3621 11.3213 26.7877 11.3213 26.975C11.3213 27.1367 11.2532 27.4091 11.1766 27.5708C11.0914 27.7325 10.8531 28.073 10.6403 28.3198L10.2573 28.771L11.5596 30.0818C12.3937 29.4008 12.7427 29.1625 12.8704 29.1114C13.0066 29.0604 13.2364 29.0178 13.3811 29.0178C13.5513 29.0178 14.011 29.1966 14.5132 29.4519C14.9813 29.6817 15.6793 29.9711 16.0623 30.0903C16.5475 30.2265 16.8624 30.3797 17.0752 30.5755C17.2369 30.7202 17.4072 30.967 17.4497 31.1032C17.4923 31.2394 17.5434 31.6394 17.5689 31.9799L17.62 32.5927H19.4926C19.5692 31.6394 19.6202 31.2394 19.6628 31.1032C19.7053 30.967 19.8756 30.7202 20.0373 30.5755C20.2501 30.3797 20.565 30.2265 21.0417 30.0903C21.4332 29.9711 22.1312 29.6817 22.5993 29.4519C23.1356 29.1795 23.5612 29.0178 23.7484 29.0178C23.9102 29.0178 24.1825 29.0859 24.3443 29.1625C24.506 29.2476 24.8464 29.486 25.0933 29.6988L25.5444 30.0818L26.8552 28.7795C26.1743 27.9453 25.936 27.5963 25.8849 27.4687C25.8338 27.3325 25.7913 27.1027 25.7913 26.958C25.7913 26.7877 25.97 26.3281 26.2254 25.8259C26.4552 25.3578 26.7446 24.6598 26.8637 24.2768C26.9999 23.7916 27.1531 23.4767 27.3404 23.2639C27.4936 23.1021 27.7404 22.9319 27.8766 22.8893C28.0128 22.8468 28.4129 22.7957 28.7448 22.7702L29.3662 22.7191V20.8465C28.4129 20.7699 28.0128 20.7188 27.8766 20.6763C27.7404 20.6337 27.4936 20.4635 27.3404 20.3018C27.1531 20.089 26.9999 19.774 26.8637 19.2974C26.7446 18.9058 26.4552 18.2079 26.2254 17.7397C25.97 17.2375 25.7913 16.7779 25.7913 16.6162C25.7913 16.463 25.8338 16.2331 25.8849 16.1055C25.936 15.9693 26.1743 15.6203 26.4126 15.3309L26.8552 14.7862L25.5529 13.4839C24.7188 14.1648 24.3698 14.4031 24.2336 14.4542C24.1059 14.5053 23.8761 14.5478 23.7229 14.5478C23.5612 14.5478 23.1526 14.3946 22.727 14.1733C22.327 13.969 21.6035 13.6541 21.1098 13.4924C20.5395 13.2966 20.1309 13.1008 19.9777 12.9476C19.85 12.8199 19.7053 12.6071 19.6628 12.4624C19.6202 12.3263 19.5692 11.9262 19.5436 11.5942L19.4926 10.9729H17.637L17.5774 11.5942ZM18.7265 15.6033C19.5862 15.6288 19.9181 15.6799 20.4714 15.8586C20.8459 15.9778 21.3992 16.2246 21.7056 16.4034C22.0035 16.5821 22.5653 17.0333 22.9398 17.4078C23.3143 17.7823 23.7655 18.3356 23.9357 18.642C24.1144 18.9399 24.3613 19.5017 24.489 19.8762C24.6932 20.489 24.7188 20.6763 24.7188 21.7913C24.7188 22.8979 24.6932 23.0851 24.489 23.7065C24.3613 24.0725 24.1144 24.6343 23.9357 24.9322C23.7655 25.2386 23.3143 25.7919 22.9398 26.1664C22.5653 26.5409 22.0035 26.992 21.7056 27.1708C21.3992 27.3495 20.8459 27.5963 20.4714 27.724C19.85 27.9283 19.6628 27.9538 18.5563 27.9538C17.4327 27.9538 17.254 27.9283 16.6411 27.724C16.2666 27.5963 15.6878 27.3325 15.3643 27.1367C15.0324 26.9409 14.4962 26.5068 14.1642 26.1749C13.8322 25.8429 13.4066 25.3067 13.2109 24.9832C13.0151 24.6513 12.7512 24.0725 12.6236 23.7065C12.4023 23.0766 12.3852 22.9234 12.3852 21.7913C12.3852 20.6763 12.4108 20.4805 12.6151 19.8762C12.7427 19.5017 12.9896 18.9484 13.1683 18.6505C13.3471 18.3526 13.696 17.8759 13.9599 17.595C14.2153 17.3141 14.6579 16.9141 14.9388 16.7183C15.2197 16.514 15.6538 16.2587 15.9176 16.1395C16.173 16.0204 16.6666 15.8416 17.0241 15.748C17.5434 15.6033 17.8498 15.5777 18.7265 15.6033ZM17.0241 18.6079C16.7603 18.7356 16.3432 19.0505 16.0793 19.3144C15.8155 19.5698 15.5005 19.9953 15.3814 20.2592C15.2537 20.5146 15.1175 20.9572 15.0749 21.2381C15.0409 21.519 15.0409 21.9956 15.0749 22.302C15.1175 22.5999 15.2537 23.0596 15.3814 23.3234C15.5005 23.5788 15.8155 24.0044 16.0793 24.2597C16.3432 24.5236 16.7603 24.8385 17.0241 24.9662C17.2795 25.0854 17.7221 25.2216 18.003 25.2641C18.2839 25.2982 18.7605 25.2982 19.067 25.2641C19.3734 25.2216 19.8415 25.0769 20.1309 24.9407C20.4374 24.7875 20.8119 24.5066 21.0843 24.2172C21.3311 23.9618 21.629 23.5447 21.7397 23.2979C21.8588 23.0511 21.9865 22.6255 22.0376 22.3446C22.0886 22.0041 22.0886 21.6466 22.0376 21.2806C21.9865 20.9742 21.8588 20.5231 21.7397 20.2762C21.629 20.0294 21.3481 19.6293 21.1183 19.3825C20.8885 19.1357 20.514 18.8292 20.2841 18.7101C20.0543 18.5824 19.6968 18.4377 19.4926 18.3951C19.2798 18.3441 18.9733 18.293 18.8116 18.276C18.6414 18.2589 18.2839 18.276 18.003 18.31C17.7221 18.3526 17.2795 18.4888 17.0241 18.6079Z" fill="#EF7142"/>
</svg>
